<svg width="64" height="64" viewBox="0 0 64 64" fill="none" xmlns="http://www.w3.org/2000/svg">
  <rect width="64" height="64" rx="16" fill="url(#paint1_linear)" fill-opacity="0.1"/>
  <path d="M22 36C22 36 22 24 22 22C22 19.8 23.8 18 26 18C28.2 18 30 19.8 30 22V32M30 32C30 32 30 18 30 16C30 13.8 31.8 12 34 12C36.2 12 38 13.8 38 16V30M38 30C38 30 38 18 38 16C38 13.8 39.8 12 42 12C44.2 12 46 13.8 46 16V36C46 45 40 52 32 52C24 52 18 45 18 36V30" stroke="#8AE7BF" stroke-width="2" stroke-linecap="round" stroke-linejoin="round"/>
  <defs>
    <linearGradient id="paint1_linear" x1="0" y1="0" x2="64" y2="64" gradientUnits="userSpaceOnUse">
      <stop stop-color="#8AE7BF"/>
      <stop offset="1" stop-color="#8AE7BF" stop-opacity="0"/>
    </linearGradient>
  </defs>
</svg>
