<?xml version="1.0" encoding="UTF-8"?>
<svg id="Livello_2" data-name="Livello 2" xmlns="http://www.w3.org/2000/svg" viewBox="0 0 198.31 195.67">
  <defs>
    <style>
      .cls-1 {
        fill: #1a2b3c;
      }

      .cls-1, .cls-2, .cls-3, .cls-4 {
        opacity: .85;
      }

      .cls-2 {
        fill: #94cdb5;
      }

      .cls-3 {
        fill: #f3955a;
      }

      .cls-5 {
        fill: #eeeeed;
      }

      .cls-4 {
        fill: #f5b8a5;
      }
    </style>
  </defs>
  <g id="Livello_1-2" data-name="Livello 1">
    <path class="cls-5" d="M87.71,121.79c-.8.84-1.93,1.25-3.37,1.25s-2.57-.42-3.38-1.25-1.22-2.02-1.22-3.54v-37.49c0-1.52.42-2.71,1.27-3.54s2.03-1.25,3.56-1.25c.97,0,1.83.22,2.56.65s1.47,1.15,2.21,2.14l19.82,27.7h.25v-25.67c0-1.52.4-2.71,1.21-3.56s1.94-1.27,3.4-1.27,2.56.42,3.37,1.25,1.21,2.03,1.21,3.57v37.58c0,1.5-.41,2.66-1.22,3.46s-1.98,1.21-3.48,1.21c-1.04,0-1.92-.21-2.64-.62s-1.44-1.13-2.16-2.14l-19.89-27.86h-.29v25.83c0,1.52-.4,2.71-1.21,3.54Z"/>
    <rect class="cls-2" x="73.2" y="39.47" width="132.68" height="34.77" rx="5.67" ry="5.67" transform="translate(81.07 -82.02) rotate(45)"/>
    <rect class="cls-1" x="-9.48" y="40.18" width="132.68" height="34.77" rx="5.66" ry="5.66" transform="translate(137.77 58.07) rotate(135)"/>
    <rect class="cls-3" x="-8.77" y="121.43" width="132.68" height="34.77" rx="5.67" ry="5.67" transform="translate(115.02 -.05) rotate(45)"/>
    <path class="cls-4" d="M196.64,106.3l-85.78,85.78c-2.22,2.22-5.82,2.22-8.04,0l-16.55-16.55c-2.22-2.22-2.22-5.82,0-8.04l69.66-69.66,16.12-16.12c2.22-2.22,5.82-2.22,8.04,0l14.2,14.21,2.35,2.35c2.22,2.21,2.22,5.81,0,8.03Z"/>
    <path class="cls-2" d="M194.29,95.92l-16.13,16.12c-2.21,2.22-5.81,2.22-8.02,0l-14.21-14.21,16.12-16.12c2.22-2.22,5.82-2.22,8.04,0l14.2,14.21Z"/>
  </g>
</svg>